# xmcd
#
# Track frame offsets: 
#        150
#        12934
#        31312
#        43373
#        51028
#        63614
#        72439
#        83570
#        93768
#        103901
#
# Disc length: 1516 seconds
#
# Revision: 0
# Processed by: cddbd v1.5.2PL0 Copyright (c) Steve Scherf et al.
# Submitted via: ExactAudioCopy v0.95b4
#
DISCID=8205ea0a
DTITLE=Johnny Cash - Classic Country Star
DYEAR=2006
DGENRE=Country
TTITLE0=Folsom Prison Blues
TTITLE1=One Piece At A Time
TTITLE2=You're The Nearest Thing To Heaven
TTITLE3=Come In Stranger
TTITLE4=Next In Line
TTITLE5=Katy Too
TTITLE6=Oh Lonesome Me
TTITLE7=Straight A's In Love
TTITLE8=Get Rhythm
TTITLE9=Rock Island Line
EXTD=
EXTT0=
EXTT1=
EXTT2=
EXTT3=
EXTT4=
EXTT5=
EXTT6=
EXTT7=
EXTT8=
EXTT9=
PLAYORDER=
